<?xml version="1.0" encoding="UTF-8" standalone="no"?><!DOCTYPE svg PUBLIC "-//W3C//DTD SVG 1.1//EN" "http://www.w3.org/Graphics/SVG/1.1/DTD/svg11.dtd"><svg width="100%" height="100%" viewBox="0 0 2250 2250" version="1.1" xmlns="http://www.w3.org/2000/svg" xmlns:xlink="http://www.w3.org/1999/xlink" xml:space="preserve" xmlns:serif="http://www.serif.com/" style="fill-rule:evenodd;clip-rule:evenodd;stroke-linejoin:round;stroke-miterlimit:2;"><path d="M1181.04,1085.96c0.125,0.077 0.249,0.153 0.374,0.228m31.533,-6.22c0.017,-0.019 0.034,-0.039 0.052,-0.059" style="fill:none;"/><path d="M800.489,1439.78l47.923,-0l0,8.728l-19.502,-0l0,38.879l-8.852,-0l-0,-38.879l-19.569,-0l0,-8.728Z" style="fill:#f00;fill-rule:nonzero;"/><rect x="853.471" y="1439.78" width="8.786" height="47.607" style="fill:#f00;fill-rule:nonzero;"/><path d="M895.07,1460.4l17.372,-20.629l9.651,-0l0,47.607l-8.852,-0l0,-34.912l-18.171,21.489l-18.237,-21.489l0,34.912l-8.786,-0l0,-47.607l9.585,-0l17.438,20.629Z" style="fill:#f00;fill-rule:nonzero;"/><rect x="929.881" y="1439.78" width="8.786" height="47.607" style="fill:#f00;fill-rule:nonzero;"/><path d="M983.528,1474.69l-0,-34.911l8.852,-0l0,47.607l-9.584,-0l-29.553,-34.912l0,34.912l-8.786,-0l0,-47.607l9.585,-0l29.486,34.911Z" style="fill:#f00;fill-rule:nonzero;"/><path d="M1047.76,1448.97l-0,3.702l-8.853,0l0,-3.702c0,-0.309 -0.155,-0.463 -0.466,-0.463l-29.352,-0c-0.311,-0 -0.466,0.154 -0.466,0.463l-0,29.225c-0,0.308 0.155,0.463 0.466,0.463l29.352,-0c0.311,-0 0.466,-0.155 0.466,-0.463l0,-8.993l-10.849,0l0,-8.727l19.702,-0l-0,17.72c-0,2.556 -0.91,4.738 -2.729,6.546c-1.819,1.763 -4.016,2.645 -6.59,2.645l-29.352,-0c-2.574,-0 -4.77,-0.882 -6.59,-2.645c-1.775,-1.808 -2.662,-3.99 -2.662,-6.546l-0,-29.225c-0,-2.557 0.887,-4.717 2.662,-6.48c1.82,-1.808 4.016,-2.711 6.59,-2.711l29.352,-0c2.574,-0 4.771,0.903 6.59,2.711c1.819,1.763 2.729,3.923 2.729,6.48Z" style="fill:#f00;fill-rule:nonzero;"/><path d="M1123.17,1448.97l-0,3.636l-8.853,0l0,-3.636c0,-0.309 -0.133,-0.463 -0.399,-0.463l-29.419,-0c-0.311,-0 -0.466,0.154 -0.466,0.463l-0,9.785c-0,0.309 0.155,0.463 0.466,0.463l29.419,0c2.529,0 4.703,0.904 6.523,2.711c1.819,1.763 2.729,3.923 2.729,6.48l-0,9.786c-0,2.556 -0.91,4.738 -2.729,6.546c-1.82,1.763 -3.994,2.645 -6.523,2.645l-29.419,-0c-2.574,-0 -4.771,-0.882 -6.59,-2.645c-1.775,-1.808 -2.662,-3.99 -2.662,-6.546l-0,-3.637l8.786,0l-0,3.637c-0,0.308 0.155,0.463 0.466,0.463l29.419,-0c0.266,-0 0.399,-0.155 0.399,-0.463l0,-9.786c0,-0.309 -0.133,-0.463 -0.399,-0.463l-29.419,0c-2.574,0 -4.771,-0.881 -6.59,-2.645c-1.775,-1.807 -2.662,-3.989 -2.662,-6.546l-0,-9.785c-0,-2.557 0.887,-4.717 2.662,-6.48c1.819,-1.808 4.016,-2.711 6.59,-2.711l29.419,-0c2.529,-0 4.703,0.903 6.523,2.711c1.819,1.763 2.729,3.923 2.729,6.48Z" style="fill:#f00;fill-rule:nonzero;"/><path d="M1170.29,1439.78l10.516,-0l-22.164,29.82l-0,17.787l-8.786,-0l-0,-17.787l-22.164,-29.82l10.449,-0l16.108,20.233l16.041,-20.233Z" style="fill:#f00;fill-rule:nonzero;"/><path d="M1231.53,1448.97l0,3.636l-8.852,0l0,-3.636c0,-0.309 -0.133,-0.463 -0.399,-0.463l-29.42,-0c-0.31,-0 -0.466,0.154 -0.466,0.463l0,9.785c0,0.309 0.156,0.463 0.466,0.463l29.42,0c2.529,0 4.703,0.904 6.522,2.711c1.82,1.763 2.729,3.923 2.729,6.48l0,9.786c0,2.556 -0.909,4.738 -2.729,6.546c-1.819,1.763 -3.993,2.645 -6.522,2.645l-29.42,-0c-2.573,-0 -4.77,-0.882 -6.589,-2.645c-1.775,-1.808 -2.662,-3.99 -2.662,-6.546l-0,-3.637l8.785,0l0,3.637c0,0.308 0.156,0.463 0.466,0.463l29.42,-0c0.266,-0 0.399,-0.155 0.399,-0.463l0,-9.786c0,-0.309 -0.133,-0.463 -0.399,-0.463l-29.42,0c-2.573,0 -4.77,-0.881 -6.589,-2.645c-1.775,-1.807 -2.662,-3.989 -2.662,-6.546l-0,-9.785c-0,-2.557 0.887,-4.717 2.662,-6.48c1.819,-1.808 4.016,-2.711 6.589,-2.711l29.42,-0c2.529,-0 4.703,0.903 6.522,2.711c1.82,1.763 2.729,3.923 2.729,6.48Z" style="fill:#f00;fill-rule:nonzero;"/><path d="M1236.25,1439.78l47.923,-0l-0,8.728l-19.502,-0l0,38.879l-8.852,-0l-0,-38.879l-19.569,-0l0,-8.728Z" style="fill:#f00;fill-rule:nonzero;"/><path d="M1333.36,1439.78l0,8.728l-35.21,-0l0,10.711l28.355,0l-0,8.728l-28.355,0l0,10.712l35.21,-0l0,8.728l-44.062,-0l0,-47.607l44.062,-0Z" style="fill:#f00;fill-rule:nonzero;"/><path d="M1367.18,1460.4l17.372,-20.629l9.651,-0l-0,47.607l-8.853,-0l0,-34.912l-18.17,21.489l-18.238,-21.489l0,34.912l-8.786,-0l0,-47.607l9.585,-0l17.439,20.629Z" style="fill:#f00;fill-rule:nonzero;"/><path d="M1449.51,1448.97l-0,3.636l-8.853,0l0,-3.636c0,-0.309 -0.133,-0.463 -0.399,-0.463l-29.419,-0c-0.311,-0 -0.466,0.154 -0.466,0.463l-0,9.785c-0,0.309 0.155,0.463 0.466,0.463l29.419,0c2.529,0 4.703,0.904 6.523,2.711c1.819,1.763 2.729,3.923 2.729,6.48l-0,9.786c-0,2.556 -0.91,4.738 -2.729,6.546c-1.82,1.763 -3.994,2.645 -6.523,2.645l-29.419,-0c-2.574,-0 -4.77,-0.882 -6.59,-2.645c-1.775,-1.808 -2.662,-3.99 -2.662,-6.546l-0,-3.637l8.786,0l-0,3.637c-0,0.308 0.155,0.463 0.466,0.463l29.419,-0c0.266,-0 0.399,-0.155 0.399,-0.463l0,-9.786c0,-0.309 -0.133,-0.463 -0.399,-0.463l-29.419,0c-2.574,0 -4.77,-0.881 -6.59,-2.645c-1.775,-1.807 -2.662,-3.989 -2.662,-6.546l-0,-9.785c-0,-2.557 0.887,-4.717 2.662,-6.48c1.82,-1.808 4.016,-2.711 6.59,-2.711l29.419,-0c2.529,-0 4.703,0.903 6.523,2.711c1.819,1.763 2.729,3.923 2.729,6.48Z" style="fill:#f00;fill-rule:nonzero;"/><g><path d="M1609.13,1019.78c0,6.144 -0.764,11.633 -2.293,16.466c-1.529,4.832 -3.614,9.112 -6.255,12.84c-2.571,3.659 -5.56,6.801 -8.965,9.424c-3.405,2.624 -6.984,4.764 -10.737,6.421c-3.683,1.657 -7.436,2.865 -11.258,3.624c-3.753,0.759 -7.297,1.139 -10.633,1.139l-61.296,0l0,-26.924l61.296,-0c3.475,-0.277 6.602,-0.967 9.382,-2.072c2.849,-1.173 5.281,-2.727 7.297,-4.66c2.015,-1.933 3.579,-4.245 4.691,-6.938c1.112,-2.761 1.668,-5.868 1.668,-9.32l-0,-12.22c-0.348,-3.382 -1.077,-6.489 -2.189,-9.32c-1.112,-2.83 -2.641,-5.247 -4.587,-7.249c-1.877,-2.002 -4.17,-3.555 -6.88,-4.66c-2.711,-1.173 -5.838,-1.76 -9.382,-1.76l-61.087,-0c-3.614,-0 -6.359,0.932 -8.235,2.796c-1.877,1.864 -2.815,4.556 -2.815,8.077l0,110.702l-27.103,0l-0,-110.702c-0,-6.903 1.251,-12.772 3.752,-17.604c2.572,-4.833 5.734,-8.733 9.487,-11.702c3.822,-2.969 7.957,-5.109 12.405,-6.421c4.447,-1.38 8.548,-2.071 12.3,-2.071l61.296,0c6.115,0 11.606,0.794 16.47,2.382c4.865,1.519 9.139,3.59 12.822,6.213c3.753,2.555 6.915,5.523 9.487,8.906c2.64,3.383 4.795,6.939 6.463,10.667c1.737,3.659 2.988,7.387 3.752,11.184c0.765,3.728 1.147,7.249 1.147,10.562l0,12.22Z" style="fill:url(#_Linear1);fill-rule:nonzero;"/><path d="M1752.47,1092.59c0,1.933 -0.347,3.728 -1.042,5.385c-0.695,1.657 -1.668,3.107 -2.919,4.349c-1.181,1.174 -2.606,2.106 -4.274,2.796c-1.598,0.691 -3.336,1.036 -5.212,1.036l-61.295,0c-3.336,0 -6.915,-0.38 -10.738,-1.139c-3.752,-0.76 -7.47,-1.968 -11.154,-3.625c-3.683,-1.726 -7.262,-3.866 -10.737,-6.42c-3.405,-2.623 -6.393,-5.765 -8.965,-9.424c-2.571,-3.728 -4.656,-8.008 -6.254,-12.841c-1.529,-4.832 -2.294,-10.286 -2.294,-16.362l0,-62.133l27.104,-0l-0,62.133c-0,3.521 0.59,6.697 1.772,9.528c1.251,2.761 2.919,5.143 5.004,7.145c2.084,2.002 4.517,3.555 7.297,4.66c2.849,1.036 5.907,1.553 9.173,1.553l47.431,0l-0,-85.019l27.103,-0l0,98.378Z" style="fill:url(#_Linear2);fill-rule:nonzero;"/><path d="M1827.42,1106.15l-12.093,0c-3.891,0 -8.061,-0.656 -12.509,-1.968c-4.378,-1.311 -8.478,-3.451 -12.301,-6.42c-3.822,-3.038 -6.984,-6.938 -9.486,-11.702c-2.502,-4.833 -3.753,-10.735 -3.753,-17.708l0,-121.472l27.104,0l-0,121.472c-0,3.314 1.042,5.972 3.127,7.974c2.085,1.933 4.691,2.899 7.818,2.899l12.093,0l-0,26.925Z" style="fill:url(#_Linear3);fill-rule:nonzero;"/><path d="M1953.76,1068.35c0,4.625 -0.591,8.802 -1.772,12.53c-1.181,3.659 -2.745,6.904 -4.691,9.735c-1.946,2.761 -4.204,5.143 -6.776,7.145c-2.571,1.933 -5.281,3.521 -8.131,4.764c-2.78,1.242 -5.629,2.174 -8.548,2.796c-2.849,0.552 -5.559,0.828 -8.131,0.828l-73.387,0l-0,-26.925l73.179,0c3.683,0 6.463,-0.932 8.339,-2.796c1.877,-1.864 2.815,-4.556 2.815,-8.077c-0.348,-7.18 -3.996,-10.77 -10.946,-10.77l-42.01,0c-5.977,0 -11.05,-1.035 -15.22,-3.107c-4.169,-2.071 -7.575,-4.66 -10.216,-7.766c-2.571,-3.107 -4.447,-6.455 -5.629,-10.045c-1.112,-3.59 -1.668,-6.939 -1.668,-10.045c0,-6.006 1.078,-11.046 3.232,-15.119c2.154,-4.143 4.865,-7.491 8.131,-10.045c3.266,-2.555 6.811,-4.384 10.633,-5.489c3.822,-1.174 7.401,-1.76 10.737,-1.76l66.612,-0l-0,26.924l-66.404,0c-1.389,0 -2.501,0.173 -3.335,0.518c-0.765,0.276 -1.356,0.69 -1.773,1.243c-0.347,0.483 -0.555,1.035 -0.625,1.657c-0.069,0.552 -0.104,1.104 -0.104,1.657c0.069,1.104 0.278,1.967 0.625,2.588c0.348,0.622 0.765,1.071 1.251,1.347c0.556,0.276 1.147,0.448 1.772,0.517l43.991,0c6.95,0 12.857,1.243 17.722,3.728c4.864,2.486 8.791,5.627 11.779,9.424c2.989,3.728 5.143,7.801 6.463,12.22c1.39,4.418 2.085,8.526 2.085,12.323Z" style="fill:url(#_Linear4);fill-rule:nonzero;"/><path d="M2093.97,1031.28c0,3.728 -0.66,7.767 -1.98,12.116c-1.321,4.28 -3.475,8.284 -6.464,12.012c-2.918,3.659 -6.775,6.732 -11.571,9.217c-4.725,2.485 -10.494,3.728 -17.304,3.728l-48.891,-0l0,-25.578l48.891,-0c3.683,-0 6.532,-1.105 8.548,-3.314c2.015,-2.278 3.023,-5.075 3.023,-8.388c-0,-3.521 -1.147,-6.283 -3.44,-8.285c-2.224,-2.002 -4.934,-3.003 -8.131,-3.003l-48.891,0c-3.683,0 -6.532,1.139 -8.548,3.417c-2.015,2.21 -3.023,4.971 -3.023,8.285l0,37.591c0,3.59 1.112,6.386 3.336,8.388c2.294,2.002 5.108,3.003 8.444,3.003l48.682,0l-0,25.682l-48.891,0c-3.752,0 -7.818,-0.656 -12.196,-1.968c-4.309,-1.311 -8.34,-3.417 -12.092,-6.316c-3.684,-2.969 -6.776,-6.801 -9.278,-11.495c-2.502,-4.764 -3.753,-10.528 -3.753,-17.294l0,-37.798c0,-3.728 0.66,-7.732 1.981,-12.013c1.32,-4.349 3.44,-8.353 6.359,-12.012c2.988,-3.728 6.845,-6.835 11.571,-9.32c4.795,-2.486 10.598,-3.728 17.408,-3.728l48.891,-0c3.753,-0 7.783,0.656 12.092,1.967c4.378,1.312 8.409,3.452 12.092,6.421c3.753,2.899 6.881,6.731 9.382,11.494c2.502,4.695 3.753,10.425 3.753,17.191Z" style="fill:url(#_Linear5);fill-rule:nonzero;"/><path d="M322.91,1048.96c0,6.482 -0.806,12.272 -2.419,17.371c-1.614,5.098 -3.813,9.614 -6.599,13.547c-2.713,3.861 -5.866,7.175 -9.458,9.942c-3.593,2.768 -7.369,5.062 -11.328,6.883c-3.886,1.748 -7.845,3.023 -11.878,3.824c-3.959,0.801 -7.698,1.202 -11.218,1.202l59.719,51.239l-44.212,0l-59.608,-51.239l-20.566,-0l0,-28.406l64.667,0c3.593,-0.291 6.856,-1.02 9.789,-2.185c3.006,-1.238 5.572,-2.877 7.698,-4.916c2.2,-2.04 3.886,-4.48 5.059,-7.32c1.173,-2.914 1.76,-6.228 1.76,-9.942l-0,-17.918c-0,-1.602 -0.22,-2.804 -0.66,-3.605c-0.367,-0.874 -0.88,-1.493 -1.54,-1.857c-0.586,-0.437 -1.246,-0.692 -1.979,-0.765c-0.66,-0.073 -1.284,-0.109 -1.87,-0.109l-94.361,-0l-0,128.262l-28.595,0l0,-142.356c0,-1.967 0.367,-3.824 1.1,-5.572c0.733,-1.748 1.723,-3.278 2.969,-4.589c1.32,-1.311 2.86,-2.33 4.619,-3.059c1.76,-0.728 3.666,-1.092 5.719,-1.092l108.549,-0c6.379,-0 11.768,1.165 16.167,3.496c4.399,2.258 7.955,5.135 10.668,8.631c2.786,3.423 4.765,7.138 5.938,11.144c1.247,4.006 1.87,7.757 1.87,11.253l0,18.136Z" style="fill:url(#_Linear6);fill-rule:nonzero;"/><path d="M471.161,1113.86c-0,3.933 -0.697,8.194 -2.09,12.782c-1.393,4.516 -3.666,8.741 -6.819,12.674c-3.079,3.86 -7.148,7.101 -12.207,9.723c-4.986,2.622 -11.071,3.933 -18.256,3.933l-51.58,0c-3.96,0 -8.249,-0.691 -12.868,-2.075c-4.546,-1.384 -8.798,-3.606 -12.757,-6.665c-3.886,-3.132 -7.149,-7.174 -9.788,-12.127c-2.64,-5.025 -3.96,-11.107 -3.96,-18.245c0,-3.933 0.697,-8.194 2.09,-12.783c1.393,-4.588 3.629,-8.813 6.709,-12.673c3.152,-3.933 7.222,-7.211 12.207,-9.833c5.059,-2.622 11.181,-3.933 18.367,-3.933l51.58,0l-0,27.095l-51.58,-0c-3.886,-0 -6.892,1.202 -9.019,3.605c-2.126,2.331 -3.189,5.244 -3.189,8.74c0,3.715 1.21,6.628 3.629,8.741c2.493,2.039 5.426,3.059 8.799,3.059l51.36,-0c3.885,-0 6.891,-1.166 9.018,-3.496c2.126,-2.331 3.189,-5.245 3.189,-8.741l0,-39.658c0,-3.715 -1.173,-6.665 -3.519,-8.85c-2.273,-2.185 -5.169,-3.277 -8.688,-3.277l-62.798,-0l-0,-26.986l62.798,0c3.959,0 8.211,0.692 12.757,2.076c4.619,1.384 8.872,3.642 12.757,6.774c3.96,3.059 7.259,7.101 9.899,12.127c2.639,4.952 3.959,10.998 3.959,18.136l-0,39.877Z" style="fill:url(#_Linear7);fill-rule:nonzero;"/><path d="M547.816,1152.97l-12.758,0c-4.106,0 -8.505,-0.691 -13.197,-2.075c-4.619,-1.384 -8.945,-3.642 -12.978,-6.774c-4.032,-3.205 -7.368,-7.32 -10.008,-12.346c-2.639,-5.098 -3.959,-11.325 -3.959,-18.682l0,-128.154l28.594,0l0,128.154c0,3.496 1.1,6.3 3.3,8.413c2.199,2.039 4.949,3.059 8.248,3.059l12.758,-0l-0,28.405Z" style="fill:url(#_Linear8);fill-rule:nonzero;"/><path d="M618.422,1152.97l-12.758,0c-4.106,0 -8.505,-0.691 -13.197,-2.075c-4.619,-1.384 -8.945,-3.642 -12.978,-6.774c-4.032,-3.205 -7.368,-7.32 -10.008,-12.346c-2.639,-5.098 -3.959,-11.325 -3.959,-18.682l0,-128.154l28.594,0l0,128.154c0,3.496 1.1,6.3 3.3,8.413c2.199,2.039 4.949,3.059 8.248,3.059l12.758,-0l-0,28.405Z" style="fill:url(#_Linear9);fill-rule:nonzero;"/><path d="M767.882,1164.33c0,4.88 -0.623,9.25 -1.87,13.11c-1.246,3.933 -2.896,7.356 -4.949,10.27c-2.053,2.986 -4.435,5.499 -7.148,7.538c-2.713,2.113 -5.572,3.824 -8.578,5.135c-2.933,1.311 -5.903,2.258 -8.909,2.841c-3.006,0.655 -5.865,0.983 -8.578,0.983l-51.58,0l0,-28.406l51.58,0c3.813,0 6.672,-0.983 8.578,-2.95c1.907,-1.966 2.86,-4.807 2.86,-8.521l-0,-129.465l28.594,0l0,129.465Zm-40.032,-11.363l-51.58,0c-4.106,0 -8.505,-0.691 -13.197,-2.075c-4.619,-1.384 -8.945,-3.642 -12.978,-6.774c-4.032,-3.205 -7.368,-7.32 -10.008,-12.346c-2.639,-5.098 -3.959,-11.325 -3.959,-18.682l0,-78.225l28.594,0l0,78.225c0,3.715 0.99,6.555 2.97,8.522c1.979,1.966 4.912,2.95 8.798,2.95l51.36,-0l-0,28.405Z" style="fill:url(#_Linear10);fill-rule:nonzero;"/><path d="M923.061,1073.98c0,3.933 -0.696,8.194 -2.089,12.782c-1.393,4.516 -3.666,8.74 -6.819,12.674c-3.079,3.86 -7.148,7.101 -12.207,9.723c-4.986,2.622 -11.072,3.933 -18.257,3.933l-51.58,0l0,-26.985l51.58,-0c3.886,-0 6.892,-1.166 9.018,-3.496c2.127,-2.404 3.19,-5.354 3.19,-8.85c-0,-3.715 -1.21,-6.628 -3.63,-8.74c-2.346,-2.112 -5.205,-3.168 -8.578,-3.168l-51.58,-0c-3.886,-0 -6.892,1.201 -9.018,3.605c-2.126,2.331 -3.189,5.244 -3.189,8.74l-0,39.659c-0,3.787 1.173,6.737 3.519,8.849c2.42,2.113 5.389,3.169 8.908,3.169l51.36,-0l0,27.094l-51.58,0c-3.959,0 -8.248,-0.691 -12.867,-2.075c-4.546,-1.384 -8.798,-3.606 -12.758,-6.665c-3.885,-3.132 -7.148,-7.174 -9.788,-12.127c-2.639,-5.025 -3.959,-11.107 -3.959,-18.245l0,-39.877c0,-3.934 0.697,-8.158 2.09,-12.674c1.393,-4.588 3.629,-8.813 6.708,-12.673c3.153,-3.933 7.222,-7.211 12.208,-9.833c5.059,-2.622 11.181,-3.933 18.366,-3.933l51.58,0c3.959,0 8.212,0.692 12.758,2.076c4.619,1.384 8.871,3.642 12.757,6.774c3.959,3.059 7.259,7.101 9.898,12.127c2.64,4.952 3.959,10.998 3.959,18.136Z" style="fill:url(#_Linear11);fill-rule:nonzero;"/><g><path d="M1380.99,1095.9c17.229,16.141 26.42,32.844 29.24,33.96c7.137,3.866 47.907,-6.853 49.526,-23.706c9.187,-3.777 18.18,-2.998 27.08,-0.054c-3.709,28.631 -58.777,50.943 -79.137,45.379c-22.113,-6.044 -38.461,-39.802 -56.134,-48.683c6.233,-12.629 18.351,-11.849 29.425,-6.896Z" style="fill:url(#_Linear12);"/><path d="M1351.56,1102.79c-23.711,2.63 -36.72,110.033 -59.195,164.526c-9.96,11.386 -20.504,10.229 -31.317,3.285c14.868,0.309 39.106,-197.452 87.999,-195.682c8.4,-0.051 23.823,11.995 32.066,21.107c-9.125,-4.155 -22.424,-6.636 -29.553,6.764Z" style="fill:url(#_Linear13);"/><path d="M1292.37,1267.32c-7.928,19.223 -17.034,31.862 -28.203,30.995c-68.842,4.936 -79.665,-246.091 -92.391,-260.445c-0.284,-0.164 -0.575,-0.256 -0.872,-0.278c9.379,-5.08 18.638,-4.253 27.808,0.886c21.355,63.988 20.652,206.61 62.341,232.127c10.813,6.944 21.357,8.101 31.317,-3.285Z" style="fill:url(#_Linear14);"/><path d="M1025.19,1099.8c-22.535,29.601 -48.38,52.832 -82.78,54.114l-62.718,-0.939c-4.985,-10.148 -5.286,-19.324 1.878,-27.099l61.95,0.989c45.293,-6.973 54.256,-55.777 85.899,-53.437c11.317,1.231 18.625,12.234 23.721,27.277c-9.547,-8.614 -18.829,-7.634 -27.95,-0.905Z" style="fill:url(#_Linear15);"/><path d="M1053.14,1100.7c12.163,35.898 11.738,94.803 23.187,98.833c0.031,-0.022 0.062,-0.044 0.093,-0.067c6.023,7.627 15.32,8.708 27.487,4.048c-8.412,13.53 -17.435,22.529 -27.028,23.632c-41.098,4.725 -42.847,-121.798 -51.689,-127.351c9.121,-6.729 18.403,-7.709 27.95,0.905Z" style="fill:url(#_Linear16);"/><path d="M1076.42,1199.47c23.07,-16.889 54.12,-199.096 97.579,-191.966c10.94,1.19 18.696,12.97 24.705,30.976c-9.17,-5.139 -18.429,-5.966 -27.808,-0.886c-12.156,-0.905 -35.218,114.825 -66.989,165.924c-12.167,4.66 -21.464,3.579 -27.487,-4.048Z" style="fill:url(#_Linear17);"/></g></g><path d="M942.929,1016.82c0.03,0.038 0.06,0.076 0.09,0.114m27.487,4.048c0.254,-0.097 0.51,-0.197 0.767,-0.3" style="fill:none;"/><path d="M1037.39,855.121c0.036,-0.02 0.072,-0.039 0.108,-0.059m27.808,0.886c0.186,0.105 0.373,0.211 0.559,0.319" style="fill:none;"/><defs><linearGradient id="_Linear1" x1="0" y1="0" x2="1" y2="0" gradientUnits="userSpaceOnUse" gradientTransform="matrix(616.775,0,0,154.889,1459.33,1028.71)"><stop offset="0" style="stop-color:#f00;stop-opacity:1"/><stop offset="1" style="stop-color:#536bff;stop-opacity:1"/></linearGradient><linearGradient id="_Linear2" x1="0" y1="0" x2="1" y2="0" gradientUnits="userSpaceOnUse" gradientTransform="matrix(616.775,0,0,154.889,1459.33,1028.71)"><stop offset="0" style="stop-color:#f00;stop-opacity:1"/><stop offset="1" style="stop-color:#536bff;stop-opacity:1"/></linearGradient><linearGradient id="_Linear3" x1="0" y1="0" x2="1" y2="0" gradientUnits="userSpaceOnUse" gradientTransform="matrix(616.775,0,0,154.889,1459.33,1028.71)"><stop offset="0" style="stop-color:#f00;stop-opacity:1"/><stop offset="1" style="stop-color:#536bff;stop-opacity:1"/></linearGradient><linearGradient id="_Linear4" x1="0" y1="0" x2="1" y2="0" gradientUnits="userSpaceOnUse" gradientTransform="matrix(616.775,0,0,154.889,1459.33,1028.71)"><stop offset="0" style="stop-color:#f00;stop-opacity:1"/><stop offset="1" style="stop-color:#536bff;stop-opacity:1"/></linearGradient><linearGradient id="_Linear5" x1="0" y1="0" x2="1" y2="0" gradientUnits="userSpaceOnUse" gradientTransform="matrix(616.775,0,0,154.889,1459.33,1028.71)"><stop offset="0" style="stop-color:#f00;stop-opacity:1"/><stop offset="1" style="stop-color:#536bff;stop-opacity:1"/></linearGradient><linearGradient id="_Linear6" x1="0" y1="0" x2="1" y2="0" gradientUnits="userSpaceOnUse" gradientTransform="matrix(733.762,0,0,212.329,164.785,1096.42)"><stop offset="0" style="stop-color:#5669fa;stop-opacity:1"/><stop offset="0.5" style="stop-color:#f00;stop-opacity:1"/><stop offset="1" style="stop-color:#680000;stop-opacity:1"/></linearGradient><linearGradient id="_Linear7" x1="0" y1="0" x2="1" y2="0" gradientUnits="userSpaceOnUse" gradientTransform="matrix(733.762,0,0,212.329,164.785,1096.42)"><stop offset="0" style="stop-color:#5669fa;stop-opacity:1"/><stop offset="0.5" style="stop-color:#f00;stop-opacity:1"/><stop offset="1" style="stop-color:#680000;stop-opacity:1"/></linearGradient><linearGradient id="_Linear8" x1="0" y1="0" x2="1" y2="0" gradientUnits="userSpaceOnUse" gradientTransform="matrix(733.762,0,0,212.329,164.785,1096.42)"><stop offset="0" style="stop-color:#5669fa;stop-opacity:1"/><stop offset="0.5" style="stop-color:#f00;stop-opacity:1"/><stop offset="1" style="stop-color:#680000;stop-opacity:1"/></linearGradient><linearGradient id="_Linear9" x1="0" y1="0" x2="1" y2="0" gradientUnits="userSpaceOnUse" gradientTransform="matrix(733.762,0,0,212.329,164.785,1096.42)"><stop offset="0" style="stop-color:#5669fa;stop-opacity:1"/><stop offset="0.5" style="stop-color:#f00;stop-opacity:1"/><stop offset="1" style="stop-color:#680000;stop-opacity:1"/></linearGradient><linearGradient id="_Linear10" x1="0" y1="0" x2="1" y2="0" gradientUnits="userSpaceOnUse" gradientTransform="matrix(733.762,0,0,212.329,164.785,1096.42)"><stop offset="0" style="stop-color:#5669fa;stop-opacity:1"/><stop offset="0.5" style="stop-color:#f00;stop-opacity:1"/><stop offset="1" style="stop-color:#680000;stop-opacity:1"/></linearGradient><linearGradient id="_Linear11" x1="0" y1="0" x2="1" y2="0" gradientUnits="userSpaceOnUse" gradientTransform="matrix(733.762,0,0,212.329,164.785,1096.42)"><stop offset="0" style="stop-color:#5669fa;stop-opacity:1"/><stop offset="0.5" style="stop-color:#f00;stop-opacity:1"/><stop offset="1" style="stop-color:#680000;stop-opacity:1"/></linearGradient><linearGradient id="_Linear12" x1="0" y1="0" x2="1" y2="0" gradientUnits="userSpaceOnUse" gradientTransform="matrix(135.271,0,0,68.0457,1351.56,1123.28)"><stop offset="0" style="stop-color:#680000;stop-opacity:1"/><stop offset="1" style="stop-color:#f00;stop-opacity:1"/></linearGradient><linearGradient id="_Linear13" x1="0" y1="0" x2="1" y2="0" gradientUnits="userSpaceOnUse" gradientTransform="matrix(113.78,0,0,200.949,1261.05,1175.38)"><stop offset="0" style="stop-color:#680000;stop-opacity:1"/><stop offset="0.48" style="stop-color:#900000;stop-opacity:1"/><stop offset="1" style="stop-color:#f00;stop-opacity:1"/></linearGradient><linearGradient id="_Linear14" x1="0" y1="0" x2="1" y2="0" gradientUnits="userSpaceOnUse" gradientTransform="matrix(121.466,0,0,264.21,1170.9,1166.28)"><stop offset="0" style="stop-color:#680000;stop-opacity:1"/><stop offset="0.48" style="stop-color:#910000;stop-opacity:1"/><stop offset="1" style="stop-color:#f00;stop-opacity:1"/></linearGradient><linearGradient id="_Linear15" x1="0" y1="0" x2="1" y2="0" gradientUnits="userSpaceOnUse" gradientTransform="matrix(171.571,0,0,80.5681,881.574,1113.63)"><stop offset="0" style="stop-color:#680000;stop-opacity:1"/><stop offset="1" style="stop-color:#f00;stop-opacity:1"/></linearGradient><linearGradient id="_Linear16" x1="0" y1="0" x2="1" y2="0" gradientUnits="userSpaceOnUse" gradientTransform="matrix(78.7173,0,0,132.781,1025.19,1160.89)"><stop offset="0" style="stop-color:#680000;stop-opacity:1"/><stop offset="0.53" style="stop-color:#8a0000;stop-opacity:1"/><stop offset="1" style="stop-color:#f00;stop-opacity:1"/></linearGradient><linearGradient id="_Linear17" x1="0" y1="0" x2="1" y2="0" gradientUnits="userSpaceOnUse" gradientTransform="matrix(122.285,0,0,199.003,1076.42,1106.8)"><stop offset="0" style="stop-color:#680000;stop-opacity:1"/><stop offset="0.57" style="stop-color:#860000;stop-opacity:1"/><stop offset="1" style="stop-color:#f00;stop-opacity:1"/></linearGradient></defs></svg>